HIERARCHY
ROOT Hips
{
  OFFSET 263.056 91.6644 -274.608
  CHANNELS 6 Xposition Yposition Zposition Zrotation Xrotation Yrotation
  JOINT LeftUpLeg
  {
    OFFSET 8.64259 1.95398 -2.38835
    CHANNELS 3 Zrotation Xrotation Yrotation
    JOINT LeftLeg
    {
      OFFSET 43.7702 0 0
      CHANNELS 3 Zrotation Xrotation Yrotation
      JOINT LeftFoot
      {
        OFFSET 40.6238 0 0
        CHANNELS 3 Zrotation Xrotation Yrotation
        JOINT LeftToeBase
        {
          OFFSET 12.7242 0 0
          CHANNELS 3 Zrotation Xrotation Yrotation
          End Site
          {
            OFFSET 0 0 0
          }
        }
      }
    }
  }
  JOINT RightUpLeg
  {
    OFFSET -8.2249 1.95398 -2.59336
    CHANNELS 3 Zrotation Xrotation Yrotation
    JOINT RightLeg
    {
      OFFSET 43.5653 0 0
      CHANNELS 3 Zrotation Xrotation Yrotation
      JOINT RightFoot
      {
        OFFSET 40.6238 0 0
        CHANNELS 3 Zrotation Xrotation Yrotation
        JOINT RightToeBase
        {
          OFFSET 12.7242 0 0
          CHANNELS 3 Zrotation Xrotation Yrotation
          End Site
          {
            OFFSET 0 0 0
          }
        }
      }
    }
  }
  JOINT Spine
  {
    OFFSET 0.165834 0.87714 6.61349
    CHANNELS 3 Zrotation Xrotation Yrotation
    JOINT Spine1
    {
      OFFSET 7.38963 1.71661e-005 0
      CHANNELS 3 Zrotation Xrotation Yrotation
      JOINT Spine2
      {
        OFFSET 11.9445 1.14441e-005 0
        CHANNELS 3 Zrotation Xrotation Yrotation
        JOINT Spine3
        {
          OFFSET 14.7254 4.19617e-005 0
          CHANNELS 3 Zrotation Xrotation Yrotation
          JOINT Spine4
          {
            OFFSET 10.9679 0 0
            CHANNELS 3 Zrotation Xrotation Yrotation
            JOINT RightShoulder
            {
              OFFSET 2.46616 -1.6653 3.69651
              CHANNELS 3 Zrotation Xrotation Yrotation
              JOINT RightArm
              {
                OFFSET 13.0012 0 0
                CHANNELS 3 Zrotation Xrotation Yrotation
                JOINT RightForeArm
                {
                  OFFSET 28.7848 1.52588e-005 0
                  CHANNELS 3 Zrotation Xrotation Yrotation
                  JOINT RightHand
                  {
                    OFFSET 26.5688 1.52588e-005 0
                    CHANNELS 3 Zrotation Xrotation Yrotation
                    End Site
                    {
                      OFFSET 0 0 0
                    }
                  }
                }
              }
            }
            JOINT LeftShoulder
            {
              OFFSET 2.38034 -1.29275 -3.7523
              CHANNELS 3 Zrotation Xrotation Yrotation
              JOINT LeftArm
              {
                OFFSET 16.3182 6.10352e-005 0
                CHANNELS 3 Zrotation Xrotation Yrotation
                JOINT LeftForeArm
                {
                  OFFSET 27.0901 0 0
                  CHANNELS 3 Zrotation Xrotation Yrotation
                  JOINT LeftHand
                  {
                    OFFSET 24.5451 1.52588e-005 0
                    CHANNELS 3 Zrotation Xrotation Yrotation
                    End Site
                    {
                      OFFSET 0 0 0
                    }
                  }
                }
              }
            }
            JOINT Neck
            {
              OFFSET 5.0226 -0.0266342 0
              CHANNELS 3 Zrotation Xrotation Yrotation
              JOINT Head
              {
                OFFSET 6.69364 2.86102e-005 0
                CHANNELS 3 Zrotation Xrotation Yrotation
                End Site
                {
                  OFFSET 0 0 0
                }
              }
            }
          }
        }
      }
    }
  }
}
MOTION
Frames:	18
Frame Time:	0.0416667
-293.523 87.0052 -308.244 -77.6565 -13.7225 -98.7342 -170.554 8.15219 99.9211 17.1193 81.6136 -24.302 -12.3346 -61.6805 -21.5054 -162.596 52.3585 -88.699 158.605 44.0393 65.1333 -50.7811 -5.22185 14.1713 85.4499 -9.61656 -4.28049 90.1157 62.1251 92.0608 2.00035 6.61465 -90.1936 13.6679 3.87288 -0.894842 2.00233 3.82974 -1.06465 -20.5792 3.9625 0.31234 -0.566576 3.96246 0.312332 117.875 -31.0065 -50.8561 49.3006 5.13168 25.3815 -27.5286 -3.11193 -75.179 -27.2053 1.28254 -10.0888 -128.089 -17.565 0.152274 -40.1896 46.9302 6.19796 135.577 42.0783 -179.919 18.1442 8.71175 41.7028 44.3201 -2.88558 63.2159 -51.0689 -15.6573 -54.8426 
-289.459 90.3915 -305.609 -82.3263 -1.66659 -99.3358 173.362 0.0702648 95.4008 -10.9199 41.7197 2.84093 0.517297 -29.6883 -22.3035 164.171 51.7589 -72.9813 170.751 38.463 66.6767 -42.7194 2.50308 8.46772 70.2373 -2.40686 -1.13367 32.5078 5.76171 -3.19901 -1.73193 7.64949 -90.8596 11.5442 -3.84581 -1.2905 -0.120408 -3.89894 -1.11978 -22.6932 -3.27986 -2.38744 -2.68055 -3.27987 -2.38744 103.556 -24.144 -78.6929 56.7116 -9.0618 26.4345 -16.7774 -1.80963 -77.9959 -23.7796 -1.60164 3.07287 -133.656 -31.9122 6.78308 -11.1591 2.43875 17.87 88.1368 -19.3075 -92.5943 -51.1318 17.8393 -45.06 56.2162 13.6801 38.0648 -35.5069 -1.85789 -40.1675 
-284.497 92.7023 -300.727 -84.5461 16.9427 -94.3949 173.759 1.0771 93.0084 -26.4792 27.8109 5.00902 24.7759 -18.6563 -15.6217 124.607 54.1914 -46.3139 179.453 32.7364 78.083 -25.4023 7.49255 -0.517596 53.7192 5.96655 4.28579 13.31 -1.95671 0.246144 -2.17953 8.22776 -90.3843 10.4167 -4.51764 -0.365929 -1.24656 -4.52937 -0.166358 -23.837 -4.19858 -1.70902 -3.82434 -4.19857 -1.70902 94.2621 -30.1031 -98.0823 54.8696 -11.1124 30.1876 -16.3077 -1.24126 -78.7578 -23.0949 -1.2027 1.34252 -110.62 -36.2562 41.1004 -19.1878 -11.1367 18.5419 15.8952 -4.04211 -105.391 20.8184 -1.81507 -6.42133 43.4382 4.07421 17.2794 -21.989 -1.01872 -24.6025 
-278.366 93.9139 -294.322 -84.767 38.6194 -91.7095 -179.361 3.80104 89.9348 -32.2084 23.6779 3.0548 45.723 -8.93286 -1.027 70.4945 40.2745 -7.71947 -177.879 29.5552 86.6896 -21.8498 -1.66191 -3.34678 64.1029 -0.513561 -0.165941 -20.5472 -11.3195 14.6939 -0.403476 7.94758 -89.9331 10.9844 -0.772563 0.199863 -0.686631 -0.762998 0.23365 -23.2215 -0.796939 -0.0415537 -3.2089 -0.796948 -0.0415569 89.1622 -39.7799 -104.97 46.8186 -11.1367 34.0543 -14.6248 0.406329 -82.2576 -23.3475 -1.18063 1.05827 -103.438 -37.7892 53.3615 -25.4816 -3.5547 19.8198 12.5071 -5.09666 -108.308 30.8341 2.77743 5.53411 23.032 0.755788 11.4181 -4.74841 -2.93289 -13.634 
-270.34 92.7115 -286.229 -87.659 44.8886 -89.5744 -177.897 9.02754 87.2497 -39.0039 17.8037 2.35221 60.3176 5.84547 10.8955 51.5145 25.6086 2.09601 -177.196 27.0563 89.1344 -38.8472 5.14808 -5.21041 73.3326 -5.45792 -2.74482 -10.7304 -15.7363 29.4209 0.126715 7.84349 -89.7241 11.1858 0.380495 0.511951 -0.485204 0.402674 0.494703 -23.0197 0.209039 0.602638 -3.00708 0.209053 0.602637 84.8245 -49.1073 -108.98 35.0854 -14.7114 30.0311 -13.4473 0.892682 -84.3009 -23.219 -1.43011 2.28508 -101.013 -39.5295 58.1052 -30.2761 3.15076 21.3172 14.7257 -5.74479 -100.321 29.2488 2.37553 4.32319 12.2018 1.76447 4.4982 3.69489 0.354425 -4.24349 
-262.187 90.3592 -278.373 -89.6501 46.2922 -88.3087 -176.851 19.2702 86.6415 -48.0873 15.067 1.06109 61.7485 8.42137 13.6942 51.4428 24.4167 -1.44665 -179.205 24.231 89.5534 -58.2214 13.9005 -5.18062 66.6729 -4.21588 -2.30303 44.9892 2.24978 3.28822 0.254342 7.82449 -89.5664 11.2215 0.708047 0.794745 -0.449531 0.74232 0.76281 -22.9832 0.436477 0.970791 -2.97059 0.436473 0.970777 79.2273 -53.6851 -115.573 25.5479 -16.0687 21.4142 -11.5945 1.90203 -87.2048 -23.1615 -1.66474 3.40917 -98.5783 -40.3486 62.3665 -35.4691 7.83728 21.5458 12.9883 -4.99909 -87.5973 30.2743 2.71696 5.3064 13.6243 2.30338 -0.469926 -0.76102 2.31877 -1.96805 
-254.294 88.491 -271.012 -93.3412 48.8596 -86.0252 -174.679 24.8462 86.7156 -50.6556 13.1433 -0.335061 64.9499 12.4898 16.2448 47.0246 18.4948 -7.35399 178.779 14.8145 88.6854 -66.4218 12.3518 -5.54034 61.416 -3.42332 -1.96203 48.8037 1.21354 -0.104249 0.83889 8.07799 -89.483 10.7114 1.90884 0.851115 -0.958394 1.94442 0.766255 -23.4992 1.56481 1.38551 -3.4866 1.5648 1.38551 79.4987 -52.0108 -115.841 22.2865 -19.4324 10.4053 -22.9556 4.90553 -89.5163 -29.479 -2.25466 4.30259 -99.0025 -40.1616 61.6081 -40.1578 10.3595 23.9365 4.50466 1.57145 -68.8603 37.3159 2.73285 3.33735 15.6387 0.573716 -1.33659 -2.85966 0.910743 -1.41251 
-247.048 89.8688 -264.071 -94.3024 49.4165 -85.7446 -175.311 27.0401 86.7381 -42.5739 12.0516 -0.266792 61.7149 7.66439 12.8051 38.7572 10.4339 -8.88335 175.416 1.80172 84.7089 -58.5781 7.49337 -4.92721 59.1096 -1.64527 -0.930414 50.299 1.09693 -1.8418 1.3001 7.98923 -89.6675 10.8938 2.74229 0.403913 -0.774211 2.75742 0.282729 -23.3292 2.49404 1.20989 -3.31654 2.49403 1.20989 84.7919 -44.2457 -110.707 26.5494 -22.4138 3.991 -22.0455 10.8004 -99.0522 -26.9851 -1.88605 3.40161 -99.9018 -42.4742 61.17 -44.3859 11.0034 32.7628 1.20921 -2.04526 -70.312 38.1685 3.55401 5.4794 14.9963 -0.639063 3.9214 -3.90513 -1.64704 -5.17235 
-238.448 93.6226 -256.34 -92.5631 50.0995 -86.8083 -176.365 22.7556 89.436 -15.9696 15.1204 0.0491761 46.8319 -7.61164 2.10423 26.2613 -2.05451 -5.05053 175.795 -5.15061 86.3991 -45.4271 -0.432016 -5.30282 54.7741 1.07658 0.958851 48.71 1.26569 0.352116 1.80238 7.9163 -89.7561 11.0438 3.70096 0.129591 -0.621818 3.70307 -0.0336538 -23.1958 3.49069 1.23726 -3.18313 3.49069 1.23725 84.8391 -42.9456 -111.115 25.4754 -23.7868 3.19326 -26.1893 15.1769 -106.95 -25.4245 -1.95338 4.45807 -96.4664 -40.7187 65.9191 -49.0561 10.9867 37.4754 0.0724231 -2.8192 -74.2421 40.9227 3.24288 4.01597 13.2638 -2.46723 5.04563 -3.09018 -3.69007 -5.05932 
-229.606 96.247 -248.332 -85.8088 49.2358 -90.7898 -175.693 26.2714 91.9269 -6.31076 22.8454 -0.953808 43.8682 -13.1328 -4.23726 35.8108 8.00557 5.42302 178.802 -4.33758 90.6361 -35.7769 -9.12973 -4.8735 45.3447 4.32816 3.8857 48.5691 1.6938 4.22194 1.66828 7.49997 -89.9239 11.8812 3.35327 -0.20934 0.214504 3.34081 -0.356893 -22.3539 3.26099 0.809232 -2.34126 3.261 0.809226 85.0774 -43.0124 -110.7 25.7256 -28.513 5.32943 -26.1164 16.8521 -107.575 -25.7031 -1.83685 3.71862 -93.5346 -39.7417 70.3635 -51.6139 7.54299 39.1537 0.783237 -3.24235 -78.728 41.7138 3.14881 3.61459 11.1705 -2.57361 6.63158 -1.59869 -4.16902 -6.58338 
-219.971 96.8405 -240.445 -85.2709 46.9761 -93.5172 -176.139 26.5205 90.264 -19.0847 19.7539 -0.398249 50.747 -6.04995 3.07028 41.3708 15.4647 10.2651 179.481 -0.70988 89.9916 -36.5815 -11.4718 -4.79464 48.0318 3.83566 3.30676 39.271 0.748834 5.11724 1.24308 7.6854 -89.7519 11.5032 2.58915 0.231546 -0.165166 2.59683 0.117287 -22.7187 2.39978 0.999427 -2.706 2.39978 0.99942 84.449 -44.226 -111.268 28.5247 -27.6732 12.3196 -22.1203 14.2189 -105.53 -22.2872 -1.50293 3.21955 -95.2197 -41.1155 68.0869 -49.2006 5.60917 37.3498 2.50892 -3.35826 -83.1899 41.3023 3.65708 5.01148 11.3787 -2.06124 7.15353 0.00964918 -3.88768 -6.21121 
-209.845 95.2 -232.038 -88.481 46.802 -94.5832 -174.158 24.9094 88.5243 -41.3963 13.2654 -1.21963 52.8679 -4.52469 3.2981 41.6946 16.3173 12.6465 179.759 5.055 91.3857 -41.7338 -6.50186 -4.96856 54.4424 1.39822 1.13306 49.2104 2.29877 8.41435 0.928348 7.99359 -89.3489 10.8776 2.14935 1.09442 -0.791967 2.19544 0.998717 -23.3337 1.7211 1.68985 -3.321 1.72108 1.68984 82.7815 -47.7287 -112.586 29.1354 -23.8672 19.9608 -20.4942 10.8434 -96.5302 -19.6096 -1.40425 3.50107 -95.1476 -40.9548 68.1435 -45.5439 7.45394 33.3742 8.14963 -2.27969 -84.1695 39.0861 3.465 5.00056 9.86907 -1.09039 4.87242 1.66449 -2.3324 -3.98882 
-200.444 92.708 -224.254 -88.6177 44.835 -95.649 -173.239 21.1664 89.2161 -58.0553 13.7047 -0.939302 50.6674 -5.32556 4.19333 44.7079 19.9065 10.6492 179.324 13.4443 92.1056 -47.6411 2.29699 -3.65456 67.6188 -3.16969 -1.72474 47.2188 2.1508 10.1678 0.408198 8.01187 -89.2225 10.8407 1.17195 1.43682 -0.830456 1.23405 1.38385 -23.361 0.686014 1.72254 -3.34838 0.686004 1.72255 81.9701 -49.4495 -113.172 29.4184 -20.4575 25.2162 -20.6154 2.46362 -85.9846 -19.7178 -1.26337 2.73447 -95.9798 -41.466 66.9846 -40.1492 8.13414 29.3314 8.13055 -3.27597 -87.2793 38.7741 4.16494 6.9354 10.3684 0.208974 4.03373 1.69211 -0.841457 -2.81217 
-191.638 90.304 -215.875 -88.2044 44.7221 -94.5475 -172.26 14.6016 92.6893 -66.3935 12.2945 -0.179936 48.3039 -7.05686 2.11568 36.1235 8.64642 12.3564 179.961 23.4537 94.4562 -52.2882 6.61625 -2.99479 72.1543 -4.6569 -2.34447 46.1496 2.03388 10.5234 0.0230379 8.04477 -89.356 10.7803 0.342985 1.24905 -0.891179 0.397624 1.23275 -23.4215 -0.0482376 1.29438 -3.40889 -0.0482255 1.29438 80.3753 -51.1717 -114.881 27.6078 -19.3552 27.1612 -17.9245 -5.1588 -73.4549 -20.4015 -1.36174 3.15009 -98.2534 -42.4156 63.73 -32.871 5.88622 23.8693 9.38359 -3.07927 -89.9337 39.5414 4.43622 7.41571 12.88 1.68079 2.01719 -0.441744 1.11706 -0.257269 
-182.414 90.2667 -207.547 -89.6397 44.2385 -93.0403 -172.08 2.504 94.9005 -58.7272 11.7108 0.668561 38.3636 -14.6495 -4.39361 30.2815 0.677708 10.6072 179.541 28.4951 94.4359 -48.4312 5.85433 -1.48694 72.7262 -4.48854 -2.3088 32.6186 -0.063455 9.58471 -0.447715 8.0961 -89.3289 10.6851 -0.582363 1.3896 -0.986502 -0.520631 1.41387 -23.5182 -0.973048 1.15039 -3.50557 -0.973057 1.15038 79.7475 -51.3259 -115.739 30.6933 -18.4264 32.415 -16.3926 -5.89355 -70.361 -20.8021 -1.36485 3.00756 -97.4529 -39.8101 63.9609 -29.9796 7.27202 19.3174 8.1074 -4.81555 -93.9452 39.3836 4.13021 6.65984 11.9976 2.97536 -0.692991 -0.927298 3.10721 1.87879 
-172.836 93.0582 -198.93 -85.5103 43.3674 -96.1 -174.44 -3.9221 92.1513 -43.9527 21.5392 1.2838 33.9193 -17.7738 -8.39419 23.3511 -8.08113 8.05061 -178.604 30.2116 92.2617 -27.4521 2.83678 -1.24169 56.3753 1.17665 1.1451 21.6228 -1.39872 7.87614 -0.926965 7.91998 -89.3421 11.0425 -1.54018 1.457 -0.628489 -1.47458 1.52337 -23.1677 -1.90686 0.926719 -3.15509 -1.90684 0.926721 81.9076 -50.7669 -112.779 34.5909 -19.0458 36.0025 -14.896 -2.16085 -75.464 -20.8612 -1.21523 1.99538 -97.698 -38.9315 63.1968 -26.862 7.80492 16.2359 10.8943 -6.38029 -104.309 36.5717 4.39752 8.29164 12.8127 4.53357 0.0302124 -0.911938 4.43198 1.45514 
-163.595 95.3406 -189.846 -80.3788 44.0702 -99.9695 -176.096 -5.76243 88.3896 -30.6597 29.9841 0.6928 39.8466 -14.1762 -3.67622 30.9179 2.22102 2.4546 -179.868 28.9673 89.307 -8.03237 -4.1926 0.804986 45.8981 4.89789 4.4544 39.2338 0.78876 5.05194 -1.00895 7.68129 -89.2568 11.5219 -1.65957 1.65066 -0.149106 -1.58534 1.72208 -22.6886 -2.07893 1.07553 -2.67593 -2.07891 1.07554 82.8637 -50.7289 -111.378 37.4958 -19.0626 38.2163 -15.2996 1.1155 -81.0571 -20.1429 -0.921367 0.414184 -97.3185 -37.6879 63.2953 -25.5258 9.53218 15.4097 12.0372 -9.57244 -113.572 36.5578 4.19478 7.71488 13.2759 4.94207 -1.65158 -0.669739 5.27174 2.20667 
-154.296 95.7607 -181.172 -76.4244 46.4851 -102.934 -175.147 -5.31327 86.5658 -20.8515 25.9753 -0.692918 43.4633 -11.0943 -0.322583 42.9245 15.9497 1.6866 -177.08 33.9543 88.3442 -24.7464 -4.4758 -3.09096 53.3532 2.36048 1.96679 43.9557 0.918824 -0.467975 -0.775105 7.53253 -89.3327 11.8152 -1.22765 1.46083 0.144005 -1.16215 1.51342 -22.3921 -1.60991 1.02434 -2.37945 -1.6099 1.02435 82.0489 -51.1281 -112.441 35.6129 -17.6798 36.9891 -20.9994 3.25003 -86.4905 -17.818 -0.798623 0.302543 -97.2181 -38.0396 63.6123 -27.4116 10.1113 14.8986 16.9862 -13.0418 -117.312 35.2905 3.85154 7.15784 14.6438 5.65394 0.46432 -0.819277 5.38067 0.731561 
